<?xml version="1.0" encoding="utf-8"?>
<!-- Generator: Adobe Illustrator 22.0.0, SVG Export Plug-In . SVG Version: 6.00 Build 0)  -->
<svg version="1.1" xmlns="http://www.w3.org/2000/svg" xmlns:xlink="http://www.w3.org/1999/xlink" x="0px" y="0px"
	 viewBox="0 0 249.4 249.4" style="enable-background:new 0 0 249.4 249.4;" xml:space="preserve">
<style type="text/css">
	.st0{fill:url(#Logo_1_);}
	.st1{fill:#59A5A3;}
</style>
<g id="BG">
</g>
<g id="Arte_Final">
	
		<linearGradient id="Logo_1_" gradientUnits="userSpaceOnUse" x1="6739.4448" y1="112.5485" x2="6938.6582" y2="112.5485" gradientTransform="matrix(-1 0 0 1 6960.9932 0)">
		<stop  offset="0" style="stop-color:#E8336E"/>
		<stop  offset="1" style="stop-color:#601E6A"/>
	</linearGradient>
	<path id="Logo_4_" class="st0" d="M157.4,128.6L78,154.4l-54.7-27.9c-1.5-0.7-1.3-2.9,0.2-3.4L219,48.8c1.6-0.6,3.1,1.1,2.3,2.6
		L186.9,119L157.4,128.6z M85.2,158l26.9,13.7c21,10.7,46.7,2.4,57.4-18.6l7.4-14.6l-12.4-6.3l-5.5,1.8L85.2,158z"/>
	<path id="Logo_2_" class="st1" d="M43.3,134.6c0,0.3,0,0.6,0.1,0.8c0.2,0.8,0.7,1.5,1.5,1.9l38.4,19.5l40.4,20.6
		c6.4,3.2,13.1,4.8,19.8,4.8c16,0,31.4-8.7,39.1-23.9l7.1-14c0.3-0.7,0.4-1.5,0.2-2.2c-0.2-0.7-0.7-1.3-1.4-1.7l-12.6-6.4l21.8-7.1
		c0.7-0.2,1.3-0.7,1.7-1.4l30.6-60c0.5-1.1,0.4-2.3-0.4-3.2c-0.8-0.9-2-1.2-3.1-0.7L45.1,132.1C44,132.5,43.3,133.5,43.3,134.6z
		 M194.7,121.9l-27.2,8.9l-75,24.4l-39.3-20l168.2-65.5L194.7,121.9z M99.6,158.8l68.5-22.2l15.2,7.7l-5.8,11.5
		c-9.5,18.7-32.5,26.2-51.3,16.6L99.6,158.8z"/>
</g>
</svg>
